<?xml version="1.0" encoding="utf-8"?>
<svg version="1.1" xmlns="http://www.w3.org/2000/svg" x="0px" y="0px" viewBox="0 0 83 83" style="enable-background:new 0 0 71.41 83.29;" xml:space="preserve">
    <g transform="translate(6, 0)">
        <path d="M35.59,43.09v4.6c6.54,0,12.49-2.67,16.78-6.96c4.29-4.28,6.96-10.24,6.96-16.78s-2.67-12.49-6.96-16.78c-4.28-4.29-10.24-6.96-16.78-6.96S23.1,2.89,18.84,7.18c-4.27,4.29-6.93,10.24-6.93,16.77s2.65,12.48,6.93,16.77c4.27,4.29,10.22,6.97,16.75,6.97L35.59,43.09l0-4.6c-4.01,0-7.6-1.62-10.24-4.26c-2.63-2.65-4.24-6.26-4.25-10.28c0-4.02,1.62-7.63,4.25-10.28c2.64-2.64,6.23-4.26,10.24-4.26s7.62,1.62,10.27,4.27c2.64,2.65,4.27,6.26,4.27,10.27s-1.62,7.62-4.27,10.27c-2.65,2.64-6.26,4.27-10.27,4.27C35.59,38.49,35.59,43.09,35.59,43.09z" />
        <path d="M70.88,78.24c0-9.72-3.97-18.56-10.35-24.94c-6.37-6.38-15.22-10.35-24.94-10.35S17.03,46.92,10.65,53.3C4.28,59.67,0.3,68.52,0.3,78.24c0,2.54,2.06,4.6,4.6,4.6s4.6-2.06,4.6-4.6c0-7.19,2.92-13.69,7.66-18.43s11.24-7.65,18.43-7.66c7.19,0,13.69,2.92,18.43,7.66s7.65,11.24,7.66,18.43c0,2.54,2.06,4.6,4.6,4.6C68.82,82.84,70.88,80.78,70.88,78.24L70.88,78.24z" />
    </g>
</svg>